%TF.GenerationSoftware,KiCad,Pcbnew,(5.1.9)-1*%
%TF.CreationDate,2021-04-11T15:54:41+02:00*%
%TF.ProjectId,bab_top,6261625f-746f-4702-9e6b-696361645f70,rev?*%
%TF.SameCoordinates,Original*%
%TF.FileFunction,Paste,Bot*%
%TF.FilePolarity,Positive*%
%FSLAX46Y46*%
G04 Gerber Fmt 4.6, Leading zero omitted, Abs format (unit mm)*
G04 Created by KiCad (PCBNEW (5.1.9)-1) date 2021-04-11 15:54:41*
%MOMM*%
%LPD*%
G01*
G04 APERTURE LIST*
%TA.AperFunction,Profile*%
%ADD10C,0.150000*%
%TD*%
%ADD11R,6.500000X2.500000*%
%ADD12R,1.500000X1.250000*%
G04 APERTURE END LIST*
D10*
X140866666Y-146200000D02*
G75*
G03*
X140866666Y-146200000I-1666666J0D01*
G01*
X136700000Y-146200000D02*
X141700000Y-146200000D01*
X139200000Y-143700000D02*
X139200000Y-148700000D01*
X35266666Y-74800000D02*
G75*
G03*
X35266666Y-74800000I-1666666J0D01*
G01*
X31100000Y-74800000D02*
X36100000Y-74800000D01*
X33600000Y-72300000D02*
X33600000Y-77300000D01*
X273466666Y-68000000D02*
G75*
G03*
X273466666Y-68000000I-1666666J0D01*
G01*
X269300000Y-68000000D02*
X274300000Y-68000000D01*
X271800000Y-65500000D02*
X271800000Y-70500000D01*
X171066666Y-16000000D02*
G75*
G03*
X171066666Y-16000000I-1666666J0D01*
G01*
X166900000Y-16000000D02*
X171900000Y-16000000D01*
X169400000Y-13500000D02*
X169400000Y-18500000D01*
X40200000Y-78600000D02*
X37800000Y-78600000D01*
X40200000Y-142400000D02*
X37800000Y-142400000D01*
X40200000Y-78600000D02*
X44400000Y-78600000D01*
X37800000Y-142400000D02*
X37800000Y-78600000D01*
X135600000Y-142400000D02*
X39800000Y-142400000D01*
X135600000Y-78600000D02*
X135600000Y-142400000D01*
X44000000Y-78600000D02*
X135600000Y-78600000D01*
X179800000Y-64000000D02*
X174800000Y-64000000D01*
X174800000Y-14000000D02*
X174800000Y-64000000D01*
X179800000Y-14000000D02*
X174800000Y-14000000D01*
X264200000Y-64000000D02*
X259200000Y-64000000D01*
X264200000Y-14000000D02*
X264200000Y-64000000D01*
X264200000Y-14000000D02*
X259200000Y-14000000D01*
X254200000Y-64000000D02*
X259200000Y-64000000D01*
X179800000Y-64000000D02*
X254200000Y-64000000D01*
X254200000Y-14000000D02*
X259200000Y-14000000D01*
X247200000Y-14000000D02*
X192000000Y-14000000D01*
X247200000Y-14000000D02*
X254200000Y-14000000D01*
X192000000Y-14000000D02*
X179800000Y-14000000D01*
D11*
%TO.C,C407*%
X241950000Y-34600000D03*
X254450000Y-34600000D03*
%TD*%
D12*
%TO.C,C409*%
X228450000Y-21000000D03*
X225950000Y-21000000D03*
%TD*%
M02*
