%TF.GenerationSoftware,KiCad,Pcbnew,(5.1.9)-1*%
%TF.CreationDate,2021-04-11T15:54:41+02:00*%
%TF.ProjectId,bab_top,6261625f-746f-4702-9e6b-696361645f70,rev?*%
%TF.SameCoordinates,Original*%
%TF.FileFunction,Paste,Top*%
%TF.FilePolarity,Positive*%
%FSLAX46Y46*%
G04 Gerber Fmt 4.6, Leading zero omitted, Abs format (unit mm)*
G04 Created by KiCad (PCBNEW (5.1.9)-1) date 2021-04-11 15:54:41*
%MOMM*%
%LPD*%
G01*
G04 APERTURE LIST*
%TA.AperFunction,Profile*%
%ADD10C,0.150000*%
%TD*%
%ADD11R,3.200000X2.600000*%
%ADD12R,1.250000X1.500000*%
%ADD13R,1.500000X1.250000*%
%ADD14R,5.000000X2.400000*%
%ADD15R,1.600200X3.599180*%
%ADD16R,3.599180X1.600200*%
%ADD17R,2.999740X1.600200*%
%ADD18R,2.600000X3.200000*%
%ADD19R,1.500000X2.200000*%
%ADD20R,0.800100X0.800100*%
%ADD21R,1.550000X0.600000*%
%ADD22R,0.600000X1.550000*%
%ADD23R,3.830000X3.830000*%
%ADD24R,2.400000X2.000000*%
%ADD25R,2.000000X2.400000*%
%ADD26R,1.500000X1.300000*%
%ADD27R,1.300000X1.500000*%
%ADD28R,1.800860X0.800100*%
G04 APERTURE END LIST*
D10*
X140866666Y-146200000D02*
G75*
G03*
X140866666Y-146200000I-1666666J0D01*
G01*
X136700000Y-146200000D02*
X141700000Y-146200000D01*
X139200000Y-143700000D02*
X139200000Y-148700000D01*
X35266666Y-74800000D02*
G75*
G03*
X35266666Y-74800000I-1666666J0D01*
G01*
X31100000Y-74800000D02*
X36100000Y-74800000D01*
X33600000Y-72300000D02*
X33600000Y-77300000D01*
X273466666Y-68000000D02*
G75*
G03*
X273466666Y-68000000I-1666666J0D01*
G01*
X269300000Y-68000000D02*
X274300000Y-68000000D01*
X271800000Y-65500000D02*
X271800000Y-70500000D01*
X171066666Y-16000000D02*
G75*
G03*
X171066666Y-16000000I-1666666J0D01*
G01*
X166900000Y-16000000D02*
X171900000Y-16000000D01*
X169400000Y-13500000D02*
X169400000Y-18500000D01*
X40200000Y-78600000D02*
X37800000Y-78600000D01*
X40200000Y-142400000D02*
X37800000Y-142400000D01*
X40200000Y-78600000D02*
X44400000Y-78600000D01*
X37800000Y-142400000D02*
X37800000Y-78600000D01*
X135600000Y-142400000D02*
X39800000Y-142400000D01*
X135600000Y-78600000D02*
X135600000Y-142400000D01*
X44000000Y-78600000D02*
X135600000Y-78600000D01*
X179800000Y-64000000D02*
X174800000Y-64000000D01*
X174800000Y-14000000D02*
X174800000Y-64000000D01*
X179800000Y-14000000D02*
X174800000Y-14000000D01*
X264200000Y-64000000D02*
X259200000Y-64000000D01*
X264200000Y-14000000D02*
X264200000Y-64000000D01*
X264200000Y-14000000D02*
X259200000Y-14000000D01*
X254200000Y-64000000D02*
X259200000Y-64000000D01*
X179800000Y-64000000D02*
X254200000Y-64000000D01*
X254200000Y-14000000D02*
X259200000Y-14000000D01*
X247200000Y-14000000D02*
X192000000Y-14000000D01*
X247200000Y-14000000D02*
X254200000Y-14000000D01*
X192000000Y-14000000D02*
X179800000Y-14000000D01*
D11*
%TO.C,D303*%
X114200000Y-105800000D03*
X114200000Y-98600000D03*
%TD*%
D12*
%TO.C,R410*%
X209000000Y-25950000D03*
X209000000Y-28450000D03*
%TD*%
D13*
%TO.C,R411*%
X213350000Y-33800000D03*
X215850000Y-33800000D03*
%TD*%
D12*
%TO.C,C411*%
X232200000Y-44650000D03*
X232200000Y-42150000D03*
%TD*%
%TO.C,C101*%
X61600000Y-126250000D03*
X61600000Y-123750000D03*
%TD*%
D13*
%TO.C,C102*%
X83350000Y-132100000D03*
X80850000Y-132100000D03*
%TD*%
D14*
%TO.C,C201*%
X55500000Y-109000000D03*
X55500000Y-102000000D03*
%TD*%
D12*
%TO.C,C202*%
X53500000Y-98250000D03*
X53500000Y-95750000D03*
%TD*%
D15*
%TO.C,C203*%
X48000000Y-96749180D03*
X48000000Y-102250820D03*
%TD*%
D16*
%TO.C,C204*%
X67249180Y-113500000D03*
X72750820Y-113500000D03*
%TD*%
D12*
%TO.C,C205*%
X73000000Y-94250000D03*
X73000000Y-96750000D03*
%TD*%
D15*
%TO.C,C206*%
X75000000Y-100749180D03*
X75000000Y-106250820D03*
%TD*%
D17*
%TO.C,C207*%
X91199640Y-106000000D03*
X86800360Y-106000000D03*
%TD*%
D12*
%TO.C,C208*%
X94800000Y-85850000D03*
X94800000Y-83350000D03*
%TD*%
D16*
%TO.C,C303*%
X114850820Y-113500000D03*
X109349180Y-113500000D03*
%TD*%
D13*
%TO.C,C304*%
X113650000Y-108600000D03*
X111150000Y-108600000D03*
%TD*%
%TO.C,C305*%
X104350000Y-99500000D03*
X106850000Y-99500000D03*
%TD*%
D16*
%TO.C,C306*%
X97849180Y-113500000D03*
X103350820Y-113500000D03*
%TD*%
D13*
%TO.C,C307*%
X98850000Y-108500000D03*
X101350000Y-108500000D03*
%TD*%
D15*
%TO.C,C401*%
X198800000Y-24449180D03*
X198800000Y-29950820D03*
%TD*%
D13*
%TO.C,C402*%
X220650000Y-43400000D03*
X218150000Y-43400000D03*
%TD*%
%TO.C,C403*%
X220650000Y-45800000D03*
X218150000Y-45800000D03*
%TD*%
D15*
%TO.C,C404*%
X191300000Y-24449180D03*
X191300000Y-29950820D03*
%TD*%
D16*
%TO.C,C405*%
X194549180Y-36200000D03*
X200050820Y-36200000D03*
%TD*%
D12*
%TO.C,C406*%
X214200000Y-22250000D03*
X214200000Y-19750000D03*
%TD*%
%TO.C,C408*%
X249600000Y-23050000D03*
X249600000Y-20550000D03*
%TD*%
D13*
%TO.C,C410*%
X239650000Y-24400000D03*
X237150000Y-24400000D03*
%TD*%
D11*
%TO.C,D301*%
X121600000Y-100800000D03*
X121600000Y-108000000D03*
%TD*%
D18*
%TO.C,D302*%
X119200000Y-86400000D03*
X112000000Y-86400000D03*
%TD*%
D19*
%TO.C,L301*%
X108800000Y-94000000D03*
X102400000Y-94000000D03*
%TD*%
D20*
%TO.C,Q401*%
X203999240Y-20050000D03*
X203999240Y-21950000D03*
X205998220Y-21000000D03*
%TD*%
%TO.C,Q402*%
X203999240Y-24550000D03*
X203999240Y-26450000D03*
X205998220Y-25500000D03*
%TD*%
D13*
%TO.C,R103*%
X90650000Y-130200000D03*
X88150000Y-130200000D03*
%TD*%
%TO.C,R104*%
X83350000Y-129100000D03*
X80850000Y-129100000D03*
%TD*%
%TO.C,R105*%
X95850000Y-123400000D03*
X93350000Y-123400000D03*
%TD*%
%TO.C,R106*%
X78350000Y-124200000D03*
X80850000Y-124200000D03*
%TD*%
D12*
%TO.C,R201*%
X58800000Y-115050000D03*
X58800000Y-112550000D03*
%TD*%
D13*
%TO.C,R202*%
X47950000Y-106200000D03*
X50450000Y-106200000D03*
%TD*%
%TO.C,R203*%
X79850000Y-85000000D03*
X77350000Y-85000000D03*
%TD*%
D12*
%TO.C,R204*%
X73400000Y-90450000D03*
X73400000Y-87950000D03*
%TD*%
D13*
%TO.C,R205*%
X53250000Y-91600000D03*
X50750000Y-91600000D03*
%TD*%
D12*
%TO.C,R206*%
X63500000Y-113250000D03*
X63500000Y-110750000D03*
%TD*%
%TO.C,R207*%
X69500000Y-94250000D03*
X69500000Y-96750000D03*
%TD*%
%TO.C,R208*%
X69500000Y-100250000D03*
X69500000Y-102750000D03*
%TD*%
D13*
%TO.C,R209*%
X80750000Y-95200000D03*
X83250000Y-95200000D03*
%TD*%
%TO.C,R210*%
X85950000Y-95200000D03*
X88450000Y-95200000D03*
%TD*%
D12*
%TO.C,R211*%
X90800000Y-88950000D03*
X90800000Y-91450000D03*
%TD*%
D13*
%TO.C,R212*%
X85350000Y-91500000D03*
X87850000Y-91500000D03*
%TD*%
%TO.C,R213*%
X87850000Y-88000000D03*
X85350000Y-88000000D03*
%TD*%
D12*
%TO.C,R214*%
X91900000Y-85750000D03*
X91900000Y-83250000D03*
%TD*%
%TO.C,R401*%
X190800000Y-36450000D03*
X190800000Y-33950000D03*
%TD*%
%TO.C,R402*%
X209600000Y-44050000D03*
X209600000Y-41550000D03*
%TD*%
%TO.C,R404*%
X220600000Y-41050000D03*
X220600000Y-38550000D03*
%TD*%
D13*
%TO.C,R405*%
X208450000Y-17400000D03*
X205950000Y-17400000D03*
%TD*%
D12*
%TO.C,R406*%
X210800000Y-22250000D03*
X210800000Y-19750000D03*
%TD*%
D13*
%TO.C,R407*%
X203750000Y-28600000D03*
X206250000Y-28600000D03*
%TD*%
%TO.C,R408*%
X210650000Y-33800000D03*
X208150000Y-33800000D03*
%TD*%
D12*
%TO.C,R409*%
X208400000Y-22250000D03*
X208400000Y-19750000D03*
%TD*%
%TO.C,R412*%
X216600000Y-28150000D03*
X216600000Y-30650000D03*
%TD*%
D13*
%TO.C,R413*%
X221450000Y-32200000D03*
X218950000Y-32200000D03*
%TD*%
D21*
%TO.C,U201*%
X60800000Y-97095000D03*
X60800000Y-98365000D03*
X60800000Y-99635000D03*
X60800000Y-100905000D03*
X66200000Y-100905000D03*
X66200000Y-99635000D03*
X66200000Y-98365000D03*
X66200000Y-97095000D03*
%TD*%
%TO.C,U202*%
X76400000Y-88095000D03*
X76400000Y-89365000D03*
X76400000Y-90635000D03*
X76400000Y-91905000D03*
X81800000Y-91905000D03*
X81800000Y-90635000D03*
X81800000Y-89365000D03*
X81800000Y-88095000D03*
%TD*%
%TO.C,U301*%
X102900000Y-102095000D03*
X102900000Y-103365000D03*
X102900000Y-104635000D03*
X102900000Y-105905000D03*
X108300000Y-105905000D03*
X108300000Y-104635000D03*
X108300000Y-103365000D03*
X108300000Y-102095000D03*
%TD*%
D22*
%TO.C,U402*%
X212095000Y-47500000D03*
X213365000Y-47500000D03*
X214635000Y-47500000D03*
X215905000Y-47500000D03*
X215905000Y-42100000D03*
X214635000Y-42100000D03*
X213365000Y-42100000D03*
X212095000Y-42100000D03*
%TD*%
D23*
%TO.C,R414*%
X232200000Y-38000000D03*
X232200000Y-31600000D03*
%TD*%
D12*
%TO.C,C412*%
X209600000Y-46550000D03*
X209600000Y-49050000D03*
%TD*%
D15*
%TO.C,C209*%
X66040000Y-84879180D03*
X66040000Y-90380820D03*
%TD*%
D20*
%TO.C,D101*%
X83650000Y-117200760D03*
X85550000Y-117200760D03*
X84600000Y-115201780D03*
%TD*%
%TO.C,D201*%
X85599240Y-98450000D03*
X85599240Y-100350000D03*
X87598220Y-99400000D03*
%TD*%
%TO.C,D202*%
X96850000Y-85800760D03*
X98750000Y-85800760D03*
X97800000Y-83801780D03*
%TD*%
D24*
%TO.C,D404*%
X223800000Y-55250000D03*
X223800000Y-49950000D03*
%TD*%
D25*
%TO.C,D405*%
X243650000Y-47600000D03*
X238350000Y-47600000D03*
%TD*%
D20*
%TO.C,D401*%
X198350000Y-40999240D03*
X196450000Y-40999240D03*
X197400000Y-42998220D03*
%TD*%
%TO.C,D402*%
X199350000Y-47399240D03*
X197450000Y-47399240D03*
X198400000Y-49398220D03*
%TD*%
%TO.C,D403*%
X201850000Y-49400760D03*
X203750000Y-49400760D03*
X202800000Y-47401780D03*
%TD*%
%TO.C,D406*%
X214350000Y-29399240D03*
X212450000Y-29399240D03*
X213400000Y-31398220D03*
%TD*%
D26*
%TO.C,R1*%
X120250000Y-96800000D03*
X122950000Y-96800000D03*
%TD*%
D27*
%TO.C,R2*%
X184600000Y-28850000D03*
X184600000Y-31550000D03*
%TD*%
D28*
%TO.C,Q1*%
X89301140Y-125950000D03*
X89301140Y-124050000D03*
X86298860Y-125000000D03*
%TD*%
M02*
