M48
; DRILL file {KiCad (5.1.9)-1} date 04/11/21 15:54:45
; FORMAT={-:-/ absolute / metric / decimal}
; #@! TF.CreationDate,2021-04-11T15:54:45+02:00
; #@! TF.GenerationSoftware,Kicad,Pcbnew,(5.1.9)-1
; #@! TF.FileFunction,Plated,1,2,PTH
FMAT,2
METRIC
T1C1.000
T2C1.016
T3C1.143
T4C1.524
%
G90
G05
T1
X40.4Y-106.0
X50.6Y-109.2
X61.6Y-116.2
X66.2Y-94.2
X68.4Y-127.0
X72.2Y-84.4
X75.8Y-132.0
X79.8Y-81.8
X81.6Y-109.0
X89.6Y-83.0
X95.8Y-134.6
X97.8Y-105.8
X102.2Y-121.2
X102.2Y-130.2
X102.6Y-83.2
X107.2Y-83.0
X129.8Y-101.4
X188.0Y-34.0
X194.4Y-20.2
X205.0Y-31.6
X206.6Y-54.0
X207.2Y-36.2
X210.0Y-51.8
X213.6Y-25.6
X216.6Y-23.6
X217.2Y-51.8
X218.0Y-38.2
X218.3Y-18.52
X218.4Y-48.4
X219.0Y-34.8
X220.0Y-23.6
X221.0Y-28.2
X221.7Y-18.52
X223.4Y-23.6
X225.1Y-18.52
X226.8Y-23.6
X227.4Y-60.0
X228.5Y-18.52
X230.2Y-23.6
X231.6Y-55.2
X231.9Y-18.52
X233.6Y-23.6
X235.8Y-55.2
X248.4Y-47.0
X248.4Y-49.4
X254.4Y-48.8
X257.8Y-48.8
T2
X40.32Y-110.6
X40.32Y-119.4
X40.32Y-127.0
X42.86Y-110.6
X42.86Y-119.4
X42.86Y-127.0
X45.4Y-110.6
X45.4Y-119.4
X45.4Y-127.0
X50.2Y-115.0
X52.74Y-115.0
X55.28Y-115.0
X55.6Y-120.1
X55.6Y-135.34
X57.0Y-92.42
X57.0Y-94.96
X57.0Y-97.5
X58.14Y-120.1
X58.14Y-135.34
X60.68Y-120.1
X60.68Y-135.34
X63.22Y-120.1
X63.22Y-135.34
X63.5Y-107.0
X65.76Y-120.1
X65.76Y-135.34
X66.04Y-107.0
X68.3Y-120.1
X68.3Y-135.34
X68.58Y-107.0
X70.84Y-120.1
X70.84Y-135.34
X73.38Y-120.1
X73.38Y-135.34
X75.92Y-120.1
X75.92Y-135.34
X78.46Y-120.1
X78.46Y-135.34
X81.0Y-120.1
X81.0Y-135.34
X81.6Y-100.4
X81.6Y-102.94
X81.6Y-105.48
X83.54Y-120.1
X83.54Y-135.34
X86.08Y-120.1
X86.08Y-135.34
X87.8Y-112.2
X88.62Y-120.1
X88.62Y-135.34
X90.34Y-112.2
X91.16Y-120.1
X91.16Y-135.34
X92.88Y-112.2
X103.4Y-86.6
X105.94Y-86.6
X108.48Y-86.6
X120.66Y-92.6
X123.2Y-92.6
X128.0Y-92.6
X128.0Y-95.14
X128.0Y-97.68
X128.0Y-105.26
X128.0Y-107.8
X184.2Y-36.66
X184.2Y-39.2
X185.92Y-46.2
X188.46Y-46.2
X191.0Y-46.2
X194.12Y-59.2
X195.0Y-53.2
X196.66Y-59.2
X197.54Y-53.2
X199.2Y-59.2
X200.08Y-53.2
X209.2Y-60.0
X211.74Y-60.0
X214.28Y-60.0
X219.32Y-60.0
X221.86Y-60.0
X224.4Y-60.0
T3
X192.26Y-17.0
X194.8Y-17.0
X197.34Y-17.0
T4
X228.26Y-50.2
X231.46Y-60.2
X233.34Y-50.2
X236.54Y-60.2
X244.06Y-53.2
X244.06Y-60.2
X249.14Y-53.2
X249.14Y-60.2
T0
M30
