%TF.GenerationSoftware,KiCad,Pcbnew,(5.1.9)-1*%
%TF.CreationDate,2021-04-11T15:54:41+02:00*%
%TF.ProjectId,bab_top,6261625f-746f-4702-9e6b-696361645f70,rev?*%
%TF.SameCoordinates,Original*%
%TF.FileFunction,Soldermask,Bot*%
%TF.FilePolarity,Negative*%
%FSLAX46Y46*%
G04 Gerber Fmt 4.6, Leading zero omitted, Abs format (unit mm)*
G04 Created by KiCad (PCBNEW (5.1.9)-1) date 2021-04-11 15:54:41*
%MOMM*%
%LPD*%
G01*
G04 APERTURE LIST*
%TA.AperFunction,Profile*%
%ADD10C,0.150000*%
%TD*%
%ADD11O,2.432000X2.940000*%
%ADD12O,2.127200X2.432000*%
%ADD13C,2.940000*%
%ADD14O,2.432000X2.127200*%
%ADD15O,2.432000X2.432000*%
%ADD16O,2.400000X2.400000*%
G04 APERTURE END LIST*
D10*
X140866666Y-146200000D02*
G75*
G03*
X140866666Y-146200000I-1666666J0D01*
G01*
X136700000Y-146200000D02*
X141700000Y-146200000D01*
X139200000Y-143700000D02*
X139200000Y-148700000D01*
X35266666Y-74800000D02*
G75*
G03*
X35266666Y-74800000I-1666666J0D01*
G01*
X31100000Y-74800000D02*
X36100000Y-74800000D01*
X33600000Y-72300000D02*
X33600000Y-77300000D01*
X273466666Y-68000000D02*
G75*
G03*
X273466666Y-68000000I-1666666J0D01*
G01*
X269300000Y-68000000D02*
X274300000Y-68000000D01*
X271800000Y-65500000D02*
X271800000Y-70500000D01*
X171066666Y-16000000D02*
G75*
G03*
X171066666Y-16000000I-1666666J0D01*
G01*
X166900000Y-16000000D02*
X171900000Y-16000000D01*
X169400000Y-13500000D02*
X169400000Y-18500000D01*
X40200000Y-78600000D02*
X37800000Y-78600000D01*
X40200000Y-142400000D02*
X37800000Y-142400000D01*
X40200000Y-78600000D02*
X44400000Y-78600000D01*
X37800000Y-142400000D02*
X37800000Y-78600000D01*
X135600000Y-142400000D02*
X39800000Y-142400000D01*
X135600000Y-78600000D02*
X135600000Y-142400000D01*
X44000000Y-78600000D02*
X135600000Y-78600000D01*
X179800000Y-64000000D02*
X174800000Y-64000000D01*
X174800000Y-14000000D02*
X174800000Y-64000000D01*
X179800000Y-14000000D02*
X174800000Y-14000000D01*
X264200000Y-64000000D02*
X259200000Y-64000000D01*
X264200000Y-14000000D02*
X264200000Y-64000000D01*
X264200000Y-14000000D02*
X259200000Y-14000000D01*
X254200000Y-64000000D02*
X259200000Y-64000000D01*
X179800000Y-64000000D02*
X254200000Y-64000000D01*
X254200000Y-14000000D02*
X259200000Y-14000000D01*
X247200000Y-14000000D02*
X192000000Y-14000000D01*
X247200000Y-14000000D02*
X254200000Y-14000000D01*
X192000000Y-14000000D02*
X179800000Y-14000000D01*
D11*
%TO.C,U401*%
X194800000Y-17000000D03*
X192260000Y-17000000D03*
X197340000Y-17000000D03*
%TD*%
%TO.C,P103*%
G36*
G01*
X54736400Y-118884000D02*
X56463600Y-118884000D01*
G75*
G02*
X56663600Y-119084000I0J-200000D01*
G01*
X56663600Y-121116000D01*
G75*
G02*
X56463600Y-121316000I-200000J0D01*
G01*
X54736400Y-121316000D01*
G75*
G02*
X54536400Y-121116000I0J200000D01*
G01*
X54536400Y-119084000D01*
G75*
G02*
X54736400Y-118884000I200000J0D01*
G01*
G37*
D12*
X58140000Y-120100000D03*
X60680000Y-120100000D03*
X63220000Y-120100000D03*
X65760000Y-120100000D03*
X68300000Y-120100000D03*
X70840000Y-120100000D03*
X73380000Y-120100000D03*
X75920000Y-120100000D03*
X78460000Y-120100000D03*
X81000000Y-120100000D03*
X83540000Y-120100000D03*
X86080000Y-120100000D03*
X88620000Y-120100000D03*
X91160000Y-120100000D03*
G36*
G01*
X54736400Y-134124000D02*
X56463600Y-134124000D01*
G75*
G02*
X56663600Y-134324000I0J-200000D01*
G01*
X56663600Y-136356000D01*
G75*
G02*
X56463600Y-136556000I-200000J0D01*
G01*
X54736400Y-136556000D01*
G75*
G02*
X54536400Y-136356000I0J200000D01*
G01*
X54536400Y-134324000D01*
G75*
G02*
X54736400Y-134124000I200000J0D01*
G01*
G37*
X58140000Y-135340000D03*
X60680000Y-135340000D03*
X63220000Y-135340000D03*
X65760000Y-135340000D03*
X68300000Y-135340000D03*
X70840000Y-135340000D03*
X73380000Y-135340000D03*
X75920000Y-135340000D03*
X78460000Y-135340000D03*
X81000000Y-135340000D03*
X83540000Y-135340000D03*
X86080000Y-135340000D03*
X88620000Y-135340000D03*
X91160000Y-135340000D03*
%TD*%
%TO.C,P101*%
G36*
G01*
X234810000Y-48930000D02*
X234810000Y-51470000D01*
G75*
G02*
X234610000Y-51670000I-200000J0D01*
G01*
X232070000Y-51670000D01*
G75*
G02*
X231870000Y-51470000I0J200000D01*
G01*
X231870000Y-48930000D01*
G75*
G02*
X232070000Y-48730000I200000J0D01*
G01*
X234610000Y-48730000D01*
G75*
G02*
X234810000Y-48930000I0J-200000D01*
G01*
G37*
D13*
X228260000Y-50200000D03*
%TD*%
%TO.C,C407*%
G36*
G01*
X245400000Y-33350000D02*
X245400000Y-35850000D01*
G75*
G02*
X245200000Y-36050000I-200000J0D01*
G01*
X238700000Y-36050000D01*
G75*
G02*
X238500000Y-35850000I0J200000D01*
G01*
X238500000Y-33350000D01*
G75*
G02*
X238700000Y-33150000I200000J0D01*
G01*
X245200000Y-33150000D01*
G75*
G02*
X245400000Y-33350000I0J-200000D01*
G01*
G37*
G36*
G01*
X257900000Y-33350000D02*
X257900000Y-35850000D01*
G75*
G02*
X257700000Y-36050000I-200000J0D01*
G01*
X251200000Y-36050000D01*
G75*
G02*
X251000000Y-35850000I0J200000D01*
G01*
X251000000Y-33350000D01*
G75*
G02*
X251200000Y-33150000I200000J0D01*
G01*
X257700000Y-33150000D01*
G75*
G02*
X257900000Y-33350000I0J-200000D01*
G01*
G37*
%TD*%
%TO.C,C409*%
G36*
G01*
X229400000Y-20375000D02*
X229400000Y-21625000D01*
G75*
G02*
X229200000Y-21825000I-200000J0D01*
G01*
X227700000Y-21825000D01*
G75*
G02*
X227500000Y-21625000I0J200000D01*
G01*
X227500000Y-20375000D01*
G75*
G02*
X227700000Y-20175000I200000J0D01*
G01*
X229200000Y-20175000D01*
G75*
G02*
X229400000Y-20375000I0J-200000D01*
G01*
G37*
G36*
G01*
X226900000Y-20375000D02*
X226900000Y-21625000D01*
G75*
G02*
X226700000Y-21825000I-200000J0D01*
G01*
X225200000Y-21825000D01*
G75*
G02*
X225000000Y-21625000I0J200000D01*
G01*
X225000000Y-20375000D01*
G75*
G02*
X225200000Y-20175000I200000J0D01*
G01*
X226700000Y-20175000D01*
G75*
G02*
X226900000Y-20375000I0J-200000D01*
G01*
G37*
%TD*%
%TO.C,RV101*%
G36*
G01*
X44536400Y-109384000D02*
X46263600Y-109384000D01*
G75*
G02*
X46463600Y-109584000I0J-200000D01*
G01*
X46463600Y-111616000D01*
G75*
G02*
X46263600Y-111816000I-200000J0D01*
G01*
X44536400Y-111816000D01*
G75*
G02*
X44336400Y-111616000I0J200000D01*
G01*
X44336400Y-109584000D01*
G75*
G02*
X44536400Y-109384000I200000J0D01*
G01*
G37*
D12*
X42860000Y-110600000D03*
X40320000Y-110600000D03*
%TD*%
%TO.C,RV201*%
G36*
G01*
X58216000Y-96636400D02*
X58216000Y-98363600D01*
G75*
G02*
X58016000Y-98563600I-200000J0D01*
G01*
X55984000Y-98563600D01*
G75*
G02*
X55784000Y-98363600I0J200000D01*
G01*
X55784000Y-96636400D01*
G75*
G02*
X55984000Y-96436400I200000J0D01*
G01*
X58016000Y-96436400D01*
G75*
G02*
X58216000Y-96636400I0J-200000D01*
G01*
G37*
D14*
X57000000Y-94960000D03*
X57000000Y-92420000D03*
%TD*%
%TO.C,RV202*%
G36*
G01*
X64363600Y-108216000D02*
X62636400Y-108216000D01*
G75*
G02*
X62436400Y-108016000I0J200000D01*
G01*
X62436400Y-105984000D01*
G75*
G02*
X62636400Y-105784000I200000J0D01*
G01*
X64363600Y-105784000D01*
G75*
G02*
X64563600Y-105984000I0J-200000D01*
G01*
X64563600Y-108016000D01*
G75*
G02*
X64363600Y-108216000I-200000J0D01*
G01*
G37*
D12*
X66040000Y-107000000D03*
X68580000Y-107000000D03*
%TD*%
%TO.C,RV203*%
G36*
G01*
X80384000Y-101263600D02*
X80384000Y-99536400D01*
G75*
G02*
X80584000Y-99336400I200000J0D01*
G01*
X82616000Y-99336400D01*
G75*
G02*
X82816000Y-99536400I0J-200000D01*
G01*
X82816000Y-101263600D01*
G75*
G02*
X82616000Y-101463600I-200000J0D01*
G01*
X80584000Y-101463600D01*
G75*
G02*
X80384000Y-101263600I0J200000D01*
G01*
G37*
D14*
X81600000Y-102940000D03*
X81600000Y-105480000D03*
%TD*%
%TO.C,RV204*%
G36*
G01*
X88663600Y-113416000D02*
X86936400Y-113416000D01*
G75*
G02*
X86736400Y-113216000I0J200000D01*
G01*
X86736400Y-111184000D01*
G75*
G02*
X86936400Y-110984000I200000J0D01*
G01*
X88663600Y-110984000D01*
G75*
G02*
X88863600Y-111184000I0J-200000D01*
G01*
X88863600Y-113216000D01*
G75*
G02*
X88663600Y-113416000I-200000J0D01*
G01*
G37*
D12*
X90340000Y-112200000D03*
X92880000Y-112200000D03*
%TD*%
%TO.C,RV205*%
G36*
G01*
X104263600Y-87816000D02*
X102536400Y-87816000D01*
G75*
G02*
X102336400Y-87616000I0J200000D01*
G01*
X102336400Y-85584000D01*
G75*
G02*
X102536400Y-85384000I200000J0D01*
G01*
X104263600Y-85384000D01*
G75*
G02*
X104463600Y-85584000I0J-200000D01*
G01*
X104463600Y-87616000D01*
G75*
G02*
X104263600Y-87816000I-200000J0D01*
G01*
G37*
X105940000Y-86600000D03*
X108480000Y-86600000D03*
%TD*%
%TO.C,SW401*%
G36*
G01*
X210063600Y-61216000D02*
X208336400Y-61216000D01*
G75*
G02*
X208136400Y-61016000I0J200000D01*
G01*
X208136400Y-58984000D01*
G75*
G02*
X208336400Y-58784000I200000J0D01*
G01*
X210063600Y-58784000D01*
G75*
G02*
X210263600Y-58984000I0J-200000D01*
G01*
X210263600Y-61016000D01*
G75*
G02*
X210063600Y-61216000I-200000J0D01*
G01*
G37*
X211740000Y-60000000D03*
X214280000Y-60000000D03*
%TD*%
%TO.C,P102*%
G36*
G01*
X242590000Y-61470000D02*
X242590000Y-58930000D01*
G75*
G02*
X242790000Y-58730000I200000J0D01*
G01*
X245330000Y-58730000D01*
G75*
G02*
X245530000Y-58930000I0J-200000D01*
G01*
X245530000Y-61470000D01*
G75*
G02*
X245330000Y-61670000I-200000J0D01*
G01*
X242790000Y-61670000D01*
G75*
G02*
X242590000Y-61470000I0J200000D01*
G01*
G37*
D13*
X249140000Y-60200000D03*
%TD*%
%TO.C,K102*%
G36*
G01*
X126784000Y-93463600D02*
X126784000Y-91736400D01*
G75*
G02*
X126984000Y-91536400I200000J0D01*
G01*
X129016000Y-91536400D01*
G75*
G02*
X129216000Y-91736400I0J-200000D01*
G01*
X129216000Y-93463600D01*
G75*
G02*
X129016000Y-93663600I-200000J0D01*
G01*
X126984000Y-93663600D01*
G75*
G02*
X126784000Y-93463600I0J200000D01*
G01*
G37*
D14*
X128000000Y-95140000D03*
X128000000Y-97680000D03*
%TD*%
%TO.C,K101*%
G36*
G01*
X223536400Y-58784000D02*
X225263600Y-58784000D01*
G75*
G02*
X225463600Y-58984000I0J-200000D01*
G01*
X225463600Y-61016000D01*
G75*
G02*
X225263600Y-61216000I-200000J0D01*
G01*
X223536400Y-61216000D01*
G75*
G02*
X223336400Y-61016000I0J200000D01*
G01*
X223336400Y-58984000D01*
G75*
G02*
X223536400Y-58784000I200000J0D01*
G01*
G37*
D12*
X221860000Y-60000000D03*
X219320000Y-60000000D03*
%TD*%
%TO.C,P104*%
G36*
G01*
X190136400Y-44984000D02*
X191863600Y-44984000D01*
G75*
G02*
X192063600Y-45184000I0J-200000D01*
G01*
X192063600Y-47216000D01*
G75*
G02*
X191863600Y-47416000I-200000J0D01*
G01*
X190136400Y-47416000D01*
G75*
G02*
X189936400Y-47216000I0J200000D01*
G01*
X189936400Y-45184000D01*
G75*
G02*
X190136400Y-44984000I200000J0D01*
G01*
G37*
X188460000Y-46200000D03*
X185920000Y-46200000D03*
%TD*%
%TO.C,P105*%
G36*
G01*
X51063600Y-116216000D02*
X49336400Y-116216000D01*
G75*
G02*
X49136400Y-116016000I0J200000D01*
G01*
X49136400Y-113984000D01*
G75*
G02*
X49336400Y-113784000I200000J0D01*
G01*
X51063600Y-113784000D01*
G75*
G02*
X51263600Y-113984000I0J-200000D01*
G01*
X51263600Y-116016000D01*
G75*
G02*
X51063600Y-116216000I-200000J0D01*
G01*
G37*
X52740000Y-115000000D03*
X55280000Y-115000000D03*
%TD*%
%TO.C,P2*%
G36*
G01*
X122184000Y-91384000D02*
X124216000Y-91384000D01*
G75*
G02*
X124416000Y-91584000I0J-200000D01*
G01*
X124416000Y-93616000D01*
G75*
G02*
X124216000Y-93816000I-200000J0D01*
G01*
X122184000Y-93816000D01*
G75*
G02*
X121984000Y-93616000I0J200000D01*
G01*
X121984000Y-91584000D01*
G75*
G02*
X122184000Y-91384000I200000J0D01*
G01*
G37*
D15*
X120660000Y-92600000D03*
%TD*%
%TO.C,P3*%
G36*
G01*
X129216000Y-106784000D02*
X129216000Y-108816000D01*
G75*
G02*
X129016000Y-109016000I-200000J0D01*
G01*
X126984000Y-109016000D01*
G75*
G02*
X126784000Y-108816000I0J200000D01*
G01*
X126784000Y-106784000D01*
G75*
G02*
X126984000Y-106584000I200000J0D01*
G01*
X129016000Y-106584000D01*
G75*
G02*
X129216000Y-106784000I0J-200000D01*
G01*
G37*
X128000000Y-105260000D03*
%TD*%
%TO.C,P4*%
G36*
G01*
X185416000Y-38184000D02*
X185416000Y-40216000D01*
G75*
G02*
X185216000Y-40416000I-200000J0D01*
G01*
X183184000Y-40416000D01*
G75*
G02*
X182984000Y-40216000I0J200000D01*
G01*
X182984000Y-38184000D01*
G75*
G02*
X183184000Y-37984000I200000J0D01*
G01*
X185216000Y-37984000D01*
G75*
G02*
X185416000Y-38184000I0J-200000D01*
G01*
G37*
X184200000Y-36660000D03*
%TD*%
%TO.C,P5*%
G36*
G01*
X198336400Y-57984000D02*
X200063600Y-57984000D01*
G75*
G02*
X200263600Y-58184000I0J-200000D01*
G01*
X200263600Y-60216000D01*
G75*
G02*
X200063600Y-60416000I-200000J0D01*
G01*
X198336400Y-60416000D01*
G75*
G02*
X198136400Y-60216000I0J200000D01*
G01*
X198136400Y-58184000D01*
G75*
G02*
X198336400Y-57984000I200000J0D01*
G01*
G37*
D12*
X196660000Y-59200000D03*
X194120000Y-59200000D03*
%TD*%
%TO.C,P6*%
G36*
G01*
X195863600Y-54416000D02*
X194136400Y-54416000D01*
G75*
G02*
X193936400Y-54216000I0J200000D01*
G01*
X193936400Y-52184000D01*
G75*
G02*
X194136400Y-51984000I200000J0D01*
G01*
X195863600Y-51984000D01*
G75*
G02*
X196063600Y-52184000I0J-200000D01*
G01*
X196063600Y-54216000D01*
G75*
G02*
X195863600Y-54416000I-200000J0D01*
G01*
G37*
X197540000Y-53200000D03*
X200080000Y-53200000D03*
%TD*%
%TO.C,P106*%
G36*
G01*
X242590000Y-54470000D02*
X242590000Y-51930000D01*
G75*
G02*
X242790000Y-51730000I200000J0D01*
G01*
X245330000Y-51730000D01*
G75*
G02*
X245530000Y-51930000I0J-200000D01*
G01*
X245530000Y-54470000D01*
G75*
G02*
X245330000Y-54670000I-200000J0D01*
G01*
X242790000Y-54670000D01*
G75*
G02*
X242590000Y-54470000I0J200000D01*
G01*
G37*
D13*
X249140000Y-53200000D03*
%TD*%
%TO.C,P107*%
G36*
G01*
X229990000Y-61470000D02*
X229990000Y-58930000D01*
G75*
G02*
X230190000Y-58730000I200000J0D01*
G01*
X232730000Y-58730000D01*
G75*
G02*
X232930000Y-58930000I0J-200000D01*
G01*
X232930000Y-61470000D01*
G75*
G02*
X232730000Y-61670000I-200000J0D01*
G01*
X230190000Y-61670000D01*
G75*
G02*
X229990000Y-61470000I0J200000D01*
G01*
G37*
X236540000Y-60200000D03*
%TD*%
D16*
%TO.C,U403*%
X233600000Y-23600000D03*
X231900000Y-18520000D03*
X230200000Y-23600000D03*
X228500000Y-18520000D03*
X226800000Y-23600000D03*
X225100000Y-18520000D03*
X223400000Y-23600000D03*
X221700000Y-18520000D03*
X220000000Y-23600000D03*
X218300000Y-18520000D03*
X216600000Y-23600000D03*
%TD*%
%TO.C,P108*%
G36*
G01*
X44536400Y-118184000D02*
X46263600Y-118184000D01*
G75*
G02*
X46463600Y-118384000I0J-200000D01*
G01*
X46463600Y-120416000D01*
G75*
G02*
X46263600Y-120616000I-200000J0D01*
G01*
X44536400Y-120616000D01*
G75*
G02*
X44336400Y-120416000I0J200000D01*
G01*
X44336400Y-118384000D01*
G75*
G02*
X44536400Y-118184000I200000J0D01*
G01*
G37*
D12*
X42860000Y-119400000D03*
X40320000Y-119400000D03*
%TD*%
%TO.C,P109*%
G36*
G01*
X44536400Y-125784000D02*
X46263600Y-125784000D01*
G75*
G02*
X46463600Y-125984000I0J-200000D01*
G01*
X46463600Y-128016000D01*
G75*
G02*
X46263600Y-128216000I-200000J0D01*
G01*
X44536400Y-128216000D01*
G75*
G02*
X44336400Y-128016000I0J200000D01*
G01*
X44336400Y-125984000D01*
G75*
G02*
X44536400Y-125784000I200000J0D01*
G01*
G37*
X42860000Y-127000000D03*
X40320000Y-127000000D03*
%TD*%
M02*
