%TF.GenerationSoftware,KiCad,Pcbnew,(5.1.9)-1*%
%TF.CreationDate,2021-04-11T15:54:41+02:00*%
%TF.ProjectId,bab_top,6261625f-746f-4702-9e6b-696361645f70,rev?*%
%TF.SameCoordinates,Original*%
%TF.FileFunction,Legend,Bot*%
%TF.FilePolarity,Positive*%
%FSLAX46Y46*%
G04 Gerber Fmt 4.6, Leading zero omitted, Abs format (unit mm)*
G04 Created by KiCad (PCBNEW (5.1.9)-1) date 2021-04-11 15:54:41*
%MOMM*%
%LPD*%
G01*
G04 APERTURE LIST*
%TA.AperFunction,Profile*%
%ADD10C,0.150000*%
%TD*%
%ADD11C,0.150000*%
%ADD12C,0.300000*%
G04 APERTURE END LIST*
D10*
X140866666Y-146200000D02*
G75*
G03*
X140866666Y-146200000I-1666666J0D01*
G01*
X136700000Y-146200000D02*
X141700000Y-146200000D01*
X139200000Y-143700000D02*
X139200000Y-148700000D01*
X35266666Y-74800000D02*
G75*
G03*
X35266666Y-74800000I-1666666J0D01*
G01*
X31100000Y-74800000D02*
X36100000Y-74800000D01*
X33600000Y-72300000D02*
X33600000Y-77300000D01*
X273466666Y-68000000D02*
G75*
G03*
X273466666Y-68000000I-1666666J0D01*
G01*
X269300000Y-68000000D02*
X274300000Y-68000000D01*
X271800000Y-65500000D02*
X271800000Y-70500000D01*
X171066666Y-16000000D02*
G75*
G03*
X171066666Y-16000000I-1666666J0D01*
G01*
X166900000Y-16000000D02*
X171900000Y-16000000D01*
X169400000Y-13500000D02*
X169400000Y-18500000D01*
X40200000Y-78600000D02*
X37800000Y-78600000D01*
X40200000Y-142400000D02*
X37800000Y-142400000D01*
X40200000Y-78600000D02*
X44400000Y-78600000D01*
X37800000Y-142400000D02*
X37800000Y-78600000D01*
X135600000Y-142400000D02*
X39800000Y-142400000D01*
X135600000Y-78600000D02*
X135600000Y-142400000D01*
X44000000Y-78600000D02*
X135600000Y-78600000D01*
X179800000Y-64000000D02*
X174800000Y-64000000D01*
X174800000Y-14000000D02*
X174800000Y-64000000D01*
X179800000Y-14000000D02*
X174800000Y-14000000D01*
X264200000Y-64000000D02*
X259200000Y-64000000D01*
X264200000Y-14000000D02*
X264200000Y-64000000D01*
X264200000Y-14000000D02*
X259200000Y-14000000D01*
X254200000Y-64000000D02*
X259200000Y-64000000D01*
X179800000Y-64000000D02*
X254200000Y-64000000D01*
X254200000Y-14000000D02*
X259200000Y-14000000D01*
X247200000Y-14000000D02*
X192000000Y-14000000D01*
X247200000Y-14000000D02*
X254200000Y-14000000D01*
X192000000Y-14000000D02*
X179800000Y-14000000D01*
D11*
%TO.C,U401*%
X189466000Y-13952000D02*
X200134000Y-13952000D01*
X189466000Y-13952000D02*
X189466000Y-18778000D01*
X200134000Y-13952000D02*
X200134000Y-18778000D01*
X189466000Y-18778000D02*
X200134000Y-18778000D01*
X200134000Y-15349000D02*
X189466000Y-15349000D01*
X196578000Y-15222000D02*
X196578000Y-13952000D01*
X193022000Y-15222000D02*
X193022000Y-13952000D01*
X189466000Y-14206000D02*
X200134000Y-14206000D01*
X199626000Y-15349000D02*
X199626000Y-18778000D01*
X189974000Y-15349000D02*
X189974000Y-18778000D01*
D12*
%TO.C,P103*%
X98270000Y-136990000D02*
X47980000Y-136990000D01*
X98270000Y-118450000D02*
X47980000Y-118450000D01*
X98270000Y-118450000D02*
X98270000Y-136990000D01*
X47980000Y-118450000D02*
X47980000Y-136990000D01*
D11*
X54050000Y-133790000D02*
X54050000Y-136890000D01*
X55600000Y-133790000D02*
X54050000Y-133790000D01*
X56870000Y-136610000D02*
X56870000Y-134070000D01*
X54050000Y-136890000D02*
X55600000Y-136890000D01*
X92430000Y-136610000D02*
X56870000Y-136610000D01*
X92430000Y-134070000D02*
X92430000Y-136610000D01*
X56870000Y-134070000D02*
X92430000Y-134070000D01*
X54050000Y-118550000D02*
X54050000Y-121650000D01*
X55600000Y-118550000D02*
X54050000Y-118550000D01*
X56870000Y-121370000D02*
X56870000Y-118830000D01*
X54050000Y-121650000D02*
X55600000Y-121650000D01*
X92430000Y-121370000D02*
X56870000Y-121370000D01*
X92430000Y-118830000D02*
X92430000Y-121370000D01*
X56870000Y-118830000D02*
X92430000Y-118830000D01*
%TO.C,C407*%
X256200000Y-34600000D02*
G75*
G03*
X256200000Y-34600000I-8000000J0D01*
G01*
X244009000Y-34219000D02*
X244009000Y-34981000D01*
X243628000Y-34600000D02*
X244390000Y-34600000D01*
X243755000Y-26000000D02*
X256800000Y-26000000D01*
X239600000Y-30155000D02*
X243755000Y-26000000D01*
X239600000Y-39045000D02*
X239600000Y-30155000D01*
X243755000Y-43200000D02*
X239600000Y-39045000D01*
X256800000Y-43200000D02*
X243755000Y-43200000D01*
X256800000Y-26000000D02*
X256800000Y-43200000D01*
X252391000Y-27800000D02*
X252391000Y-41400000D01*
%TO.C,C409*%
X227700000Y-21850000D02*
X226700000Y-21850000D01*
X226700000Y-20150000D02*
X227700000Y-20150000D01*
%TO.C,U403*%
X215330000Y-13948000D02*
X215330000Y-19028000D01*
X234870000Y-13948000D02*
X215330000Y-13948000D01*
X234870000Y-13948000D02*
X234870000Y-19028000D01*
X215330000Y-15472000D02*
X234870000Y-15472000D01*
%TD*%
M02*
